<svg xmlns="http://www.w3.org/2000/svg" width="191" height="63" viewBox="0 0 191 63">
  <g fill="none" fill-rule="evenodd">
    <path fill="#FFF" d="M87.32,31.352 C88.6213398,31.7146685 89.6293298,32.3759952 90.344,33.336 C91.0586702,34.2960048 91.416,35.4693264 91.416,36.856 C91.416,38.7760096 90.7280069,40.2799946 89.352,41.368 C87.9759931,42.4560054 86.0826787,43 83.672,43 L75.416,43 C74.7973302,43 74.3120018,42.829335 73.96,42.488 C73.6079982,42.146665 73.432,41.6666698 73.432,41.048 L73.432,22.392 C73.432,21.7733302 73.6079982,21.293335 73.96,20.952 C74.3120018,20.610665 74.7973302,20.44 75.416,20.44 L83.352,20.44 C85.6986784,20.44 87.53866,20.9573282 88.872,21.992 C90.20534,23.0266718 90.872,24.4719907 90.872,26.328 C90.872,27.5226726 90.5573365,28.557329 89.928,29.432 C89.2986635,30.306671 88.4293389,30.9466646 87.32,31.352 Z M77.464,29.944 L82.68,29.944 C85.5173475,29.944 86.936,28.8880106 86.936,26.776 C86.936,25.709328 86.5840035,24.9200026 85.88,24.408 C85.1759965,23.8959974 84.1093405,23.64 82.68,23.64 L77.464,23.64 L77.464,29.944 Z M83.224,39.8 C84.7173408,39.8 85.8053299,39.533336 86.488,39 C87.1706701,38.466664 87.512,37.6346723 87.512,36.504 C87.512,35.3733277 87.1653368,34.5306694 86.472,33.976 C85.7786632,33.4213306 84.6960074,33.144 83.224,33.144 L77.464,33.144 L77.464,39.8 L83.224,39.8 Z M107.32,38.712 C107.682668,38.712 107.975999,38.8506653 108.2,39.128 C108.424001,39.4053347 108.536,39.7786643 108.536,40.248 C108.536,40.9093366 108.141337,41.4639978 107.352,41.912 C106.626663,42.3173354 105.805338,42.6426654 104.888,42.888 C103.970662,43.1333346 103.096004,43.256 102.264,43.256 C99.7466541,43.256 97.7520074,42.5306739 96.28,41.08 C94.8079926,39.6293261 94.072,37.6453459 94.072,35.128 C94.072,33.527992 94.3919968,32.1093395 95.032,30.872 C95.6720032,29.6346605 96.5733275,28.6746701 97.736,27.992 C98.8986725,27.3093299 100.215993,26.968 101.688,26.968 C103.096007,26.968 104.322661,27.2773302 105.368,27.896 C106.413339,28.5146698 107.223997,29.3893277 107.8,30.52 C108.376003,31.6506723 108.664,32.9839923 108.664,34.52 C108.664,35.4373379 108.258671,35.896 107.448,35.896 L98.008,35.896 C98.1360006,37.3680074 98.5519965,38.4506632 99.256,39.144 C99.9600035,39.8373368 100.983993,40.184 102.328,40.184 C103.01067,40.184 103.613331,40.0986675 104.136,39.928 C104.658669,39.7573325 105.250663,39.5226682 105.912,39.224 C106.552003,38.882665 107.021332,38.712 107.32,38.712 Z M101.784,29.784 C100.695995,29.784 99.8266699,30.1253299 99.176,30.808 C98.5253301,31.4906701 98.1360006,32.4719936 98.008,33.752 L105.24,33.752 C105.197333,32.4506602 104.877336,31.4640034 104.28,30.792 C103.682664,30.1199966 102.850672,29.784 101.784,29.784 Z M124.312,38.712 C124.674668,38.712 124.967999,38.8506653 125.192,39.128 C125.416001,39.4053347 125.528,39.7786643 125.528,40.248 C125.528,40.9093366 125.133337,41.4639978 124.344,41.912 C123.618663,42.3173354 122.797338,42.6426654 121.88,42.888 C120.962662,43.1333346 120.088004,43.256 119.256,43.256 C116.738654,43.256 114.744007,42.5306739 113.272,41.08 C111.799993,39.6293261 111.064,37.6453459 111.064,35.128 C111.064,33.527992 111.383997,32.1093395 112.024,30.872 C112.664003,29.6346605 113.565328,28.6746701 114.728,27.992 C115.890672,27.3093299 117.207993,26.968 118.68,26.968 C120.088007,26.968 121.314661,27.2773302 122.36,27.896 C123.405339,28.5146698 124.215997,29.3893277 124.792,30.52 C125.368003,31.6506723 125.656,32.9839923 125.656,34.52 C125.656,35.4373379 125.250671,35.896 124.44,35.896 L115,35.896 C115.128001,37.3680074 115.543996,38.4506632 116.248,39.144 C116.952004,39.8373368 117.975993,40.184 119.32,40.184 C120.00267,40.184 120.605331,40.0986675 121.128,39.928 C121.650669,39.7573325 122.242663,39.5226682 122.904,39.224 C123.544003,38.882665 124.013332,38.712 124.312,38.712 Z M118.776,29.784 C117.687995,29.784 116.81867,30.1253299 116.168,30.808 C115.51733,31.4906701 115.128001,32.4719936 115,33.752 L122.232,33.752 C122.189333,32.4506602 121.869336,31.4640034 121.272,30.792 C120.674664,30.1199966 119.842672,29.784 118.776,29.784 Z M137.912,26.968 C139.27734,26.968 140.482661,27.2986634 141.528,27.96 C142.573339,28.6213366 143.38933,29.5599939 143.976,30.776 C144.56267,31.9920061 144.856,33.4106586 144.856,35.032 C144.856,36.6533414 144.56267,38.0879938 143.976,39.336 C143.38933,40.5840062 142.568005,41.5493299 141.512,42.232 C140.455995,42.9146701 139.256007,43.256 137.912,43.256 C136.781328,43.256 135.773338,43.0106691 134.888,42.52 C134.002662,42.0293309 133.325336,41.346671 132.856,40.472 L132.856,41.272 C132.856,41.8480029 132.674668,42.306665 132.312,42.648 C131.949332,42.989335 131.469336,43.16 130.872,43.16 C130.274664,43.16 129.800002,42.989335 129.448,42.648 C129.095998,42.306665 128.92,41.8480029 128.92,41.272 L128.92,22.136 C128.92,21.5813306 129.106665,21.133335 129.48,20.792 C129.853335,20.450665 130.338664,20.28 130.936,20.28 C131.533336,20.28 132.013332,20.4399984 132.376,20.76 C132.738668,21.0800016 132.92,21.5173306 132.92,22.072 L132.92,29.624 C133.389336,28.7706624 134.061329,28.114669 134.936,27.656 C135.810671,27.197331 136.802661,26.968 137.912,26.968 Z M136.856,40.152 C138.114673,40.152 139.095996,39.7040045 139.8,38.808 C140.504004,37.9119955 140.856,36.6533414 140.856,35.032 C140.856,33.431992 140.509337,32.2053376 139.816,31.352 C139.122663,30.4986624 138.136006,30.072 136.856,30.072 C135.575994,30.072 134.589337,30.5039957 133.896,31.368 C133.202663,32.2320043 132.856,33.4746586 132.856,35.096 C132.856,36.7173414 133.202663,37.965329 133.896,38.84 C134.589337,39.714671 135.575994,40.152 136.856,40.152 Z M155.288,43.256 C153.687992,43.256 152.285339,42.9253366 151.08,42.264 C149.874661,41.6026634 148.941337,40.6533395 148.28,39.416 C147.618663,38.1786605 147.288,36.7386749 147.288,35.096 C147.288,33.4533251 147.618663,32.0186728 148.28,30.792 C148.941337,29.5653272 149.874661,28.6213366 151.08,27.96 C152.285339,27.2986634 153.687992,26.968 155.288,26.968 C156.888008,26.968 158.290661,27.2986634 159.496,27.96 C160.701339,28.6213366 161.62933,29.5653272 162.28,30.792 C162.93067,32.0186728 163.256,33.4533251 163.256,35.096 C163.256,36.7386749 162.93067,38.1786605 162.28,39.416 C161.62933,40.6533395 160.701339,41.6026634 159.496,42.264 C158.290661,42.9253366 156.888008,43.256 155.288,43.256 Z M155.256,40.152 C156.55734,40.152 157.54933,39.7253376 158.232,38.872 C158.91467,38.0186624 159.256,36.7600083 159.256,35.096 C159.256,33.4533251 158.91467,32.2000043 158.232,31.336 C157.54933,30.4719957 156.568006,30.04 155.288,30.04 C154.007994,30.04 153.021337,30.4719957 152.328,31.336 C151.634663,32.2000043 151.288,33.4533251 151.288,35.096 C151.288,36.7600083 151.62933,38.0186624 152.312,38.872 C152.99467,39.7253376 153.975994,40.152 155.256,40.152 Z M185.144,26.968 C186.850675,26.968 188.157329,27.4746616 189.064,28.488 C189.970671,29.5013384 190.424,31.1386554 190.424,33.4 L190.424,41.272 C190.424,41.8906698 190.237335,42.3653317 189.864,42.696 C189.490665,43.0266683 189.005336,43.192 188.408,43.192 C187.831997,43.192 187.357335,43.0266683 186.984,42.696 C186.610665,42.3653317 186.424,41.8906698 186.424,41.272 L186.424,33.4 C186.424,32.2266608 186.216002,31.3893358 185.8,30.888 C185.383998,30.3866642 184.749338,30.136 183.896,30.136 C182.850661,30.136 182.01867,30.4933298 181.4,31.208 C180.78133,31.9226702 180.472,32.8986605 180.472,34.136 L180.472,41.272 C180.472,41.8906698 180.285335,42.3653317 179.912,42.696 C179.538665,43.0266683 179.064003,43.192 178.488,43.192 C177.911997,43.192 177.432002,43.0266683 177.048,42.696 C176.663998,42.3653317 176.472,41.8906698 176.472,41.272 L176.472,33.4 C176.472,32.2266608 176.264002,31.3893358 175.848,30.888 C175.431998,30.3866642 174.797338,30.136 173.944,30.136 C172.898661,30.136 172.072003,30.4933298 171.464,31.208 C170.855997,31.9226702 170.552,32.8986605 170.552,34.136 L170.552,41.272 C170.552,41.8906698 170.360002,42.3653317 169.976,42.696 C169.591998,43.0266683 169.112003,43.192 168.536,43.192 C167.959997,43.192 167.485335,43.0266683 167.112,42.696 C166.738665,42.3653317 166.552,41.8906698 166.552,41.272 L166.552,28.888 C166.552,28.2906637 166.743998,27.8320016 167.128,27.512 C167.512002,27.1919984 167.991997,27.032 168.568,27.032 C169.122669,27.032 169.575998,27.1866651 169.928,27.496 C170.280002,27.8053349 170.456,28.2479971 170.456,28.824 L170.456,29.592 C170.946669,28.7386624 171.602663,28.0880022 172.424,27.64 C173.245337,27.1919978 174.189328,26.968 175.256,26.968 C177.602678,26.968 179.170663,27.9493235 179.96,29.912 C180.429336,29.0159955 181.122662,28.301336 182.04,27.768 C182.957338,27.234664 183.991994,26.968 185.144,26.968 Z"/>
    <circle cx="31.5" cy="31.5" r="31.5" fill="#000"/>
    <path fill="#FFF" d="M28.3208,30.77888 C29.4627257,31.0971216 30.3472369,31.6774358 30.97436,32.51984 C31.6014831,33.3622442 31.91504,34.3918339 31.91504,35.60864 C31.91504,37.2934484 31.311326,38.6131952 30.10388,39.56792 C28.896434,40.5226448 27.2350506,41 25.11968,41 L17.87504,41 C17.3321573,41 16.9062815,40.8502415 16.5974,40.55072 C16.2885185,40.2511985 16.13408,39.8300027 16.13408,39.28712 L16.13408,22.91648 C16.13408,22.3735973 16.2885185,21.9524015 16.5974,21.65288 C16.9062815,21.3533585 17.3321573,21.2036 17.87504,21.2036 L24.83888,21.2036 C26.8980903,21.2036 28.5126741,21.6575555 29.68268,22.56548 C30.8526858,23.4734045 31.43768,24.7416719 31.43768,26.37032 C31.43768,27.4186452 31.1615628,28.3265562 30.60932,29.09408 C30.0570772,29.8616038 29.2942449,30.4231982 28.3208,30.77888 Z M19.67216,29.54336 L24.2492,29.54336 C26.7389724,29.54336 27.98384,28.6167293 27.98384,26.76344 C27.98384,25.8274353 27.6749631,25.1348022 27.0572,24.68552 C26.4394369,24.2362378 25.5034463,24.0116 24.2492,24.0116 L19.67216,24.0116 L19.67216,29.54336 Z M24.72656,38.192 C26.0369666,38.192 26.991677,37.9580023 27.59072,37.49 C28.189763,37.0219977 28.48928,36.291925 28.48928,35.29976 C28.48928,34.307595 28.185083,33.5681624 27.57668,33.08144 C26.968277,32.5947176 26.0182465,32.35136 24.72656,32.35136 L19.67216,32.35136 L19.67216,38.192 L24.72656,38.192 Z M42.89432,26.93192 C44.092406,26.93192 45.1500754,27.2220771 46.06736,27.8024 C46.9846446,28.3827229 47.7006774,29.2063947 48.21548,30.27344 C48.7302826,31.3404853 48.98768,32.5853529 48.98768,34.00808 C48.98768,35.4308071 48.7302826,36.6897145 48.21548,37.78484 C47.7006774,38.8799655 46.9799646,39.727037 46.05332,40.32608 C45.1266754,40.925123 44.0736859,41.22464 42.89432,41.22464 C41.902155,41.22464 41.0176439,41.0093622 40.24076,40.5788 C39.4638761,40.1482378 38.8695221,39.5492038 38.45768,38.78168 L38.45768,39.48368 C38.45768,39.9891225 38.2985616,40.3915985 37.98032,40.69112 C37.6620784,40.9906415 37.2408826,41.1404 36.71672,41.1404 C36.1925574,41.1404 35.7760415,40.9906415 35.46716,40.69112 C35.1582785,40.3915985 35.00384,39.9891225 35.00384,39.48368 L35.00384,22.69184 C35.00384,22.2051176 35.1676384,21.8120015 35.49524,21.51248 C35.8228416,21.2129585 36.2487174,21.0632 36.77288,21.0632 C37.2970426,21.0632 37.7182384,21.2035986 38.03648,21.4844 C38.3547216,21.7652014 38.51384,22.1489576 38.51384,22.63568 L38.51384,29.26256 C38.9256821,28.5137563 39.5153562,27.938122 40.28288,27.53564 C41.0504038,27.133158 41.9208751,26.93192 42.89432,26.93192 Z M41.96768,38.50088 C43.0721655,38.50088 43.9332769,38.1077639 44.55104,37.32152 C45.1688031,36.5352761 45.47768,35.4308071 45.47768,34.00808 C45.47768,32.604073 45.173483,31.5276837 44.56508,30.77888 C43.956677,30.0300763 43.0908856,29.65568 41.96768,29.65568 C40.8444744,29.65568 39.978683,30.0347562 39.37028,30.79292 C38.761877,31.5510838 38.45768,32.6415129 38.45768,34.06424 C38.45768,35.4869671 38.761877,36.5820762 39.37028,37.3496 C39.978683,38.1171238 40.8444744,38.50088 41.96768,38.50088 Z"/>
  </g>
</svg>
